<?xml version="1.0" encoding="utf-8"?>
<!-- Generator: Adobe Illustrator 26.0.3, SVG Export Plug-In . SVG Version: 6.00 Build 0)  -->
<svg version="1.0" id="Layer_1" xmlns="http://www.w3.org/2000/svg" xmlns:xlink="http://www.w3.org/1999/xlink" x="0px" y="0px"
	 viewBox="0 0 326 252" style="enable-background:new 0 0 326 252;" xml:space="preserve">
<style type="text/css">
	.st0{fill:#909599;}
	.st1{fill:url(#path5827_00000100360912163781912800000000430818964131915427_);}
	.st2{fill:url(#path5851_00000114781410094299089110000010444425647809404339_);}
	.st3{fill:url(#path5875_00000137825905021985741160000014958604404981795255_);}
	.st4{fill:url(#path5899_00000132077534550532547350000004578029816949785497_);}
	.st5{fill:url(#path5923_00000052074723495298525420000006275759565268509320_);}
	.st6{fill:#004B7D;}
	.st7{fill:none;}
</style>
<path class="st0" d="M203.5,174.8h3.5v2.1h6.4v2.9h-2.1c0.8,1.3,1.2,2.9,0.9,4.5c-0.4,2.4-2.2,4.4-4.5,5.2c-3,1.1-6.3,0-8.2-2.5
	c-1.5-2.1-1.6-4.9-0.2-7.1H197v-2.9h6.4L203.5,174.8 M204.6,180.4c-1.5,0.3-2.6,1.7-2.5,3.2c0.1,1.6,1.4,2.8,3,2.9
	c1.7,0.3,3.3-0.9,3.6-2.7c0.3-1.7-0.9-3.3-2.7-3.6C205.5,180.2,205,180.2,204.6,180.4 M84.2,176.2c2.8,3.2,5.5,6.5,8.3,9.7l-2.7,2.2
	c-1.9-2.3-3.7-4.5-5.6-6.8l-5.9,7.1l-2.7-2.2C78.4,182.9,81.3,179.6,84.2,176.2 M96.2,176.5h3.4v12h-3.5v-5h-4v-3.1h4L96.2,176.5
	 M155.5,176.5h3.5v4h3.5v3.1H159v9h-3.5V189h-19.3c0-1,0-2.1,0-3.1h5.3v-3.3h3.5v3.3h3.4V180h-11.2v-3.1h14.8c0,3,0,6,0,8.9h3.4
	L155.5,176.5 M182.5,176.5h3.5v7h2v-7h3.5v22.7H188v-12.6h-2v12.6h-3.5V194h-14.3v-17h11.5v2.9h-8v11h10.9L182.5,176.5 M216.9,176.5
	h3.5v3.9c1.1,0,2.3,0,3.4,0v3.1h-3.4v6.4h-3.5V176.5 M107.9,176.9h20.6v8.9h1.4v3.1h-6.1v4h-3.6v-4h-3.1v4h-3.6v-4h-7.4v-3.1H125
	V180h-17.2L107.9,176.9 M227.8,177.1h20.5v13.5h-3.5v-10.4h-17L227.8,177.1 M231.6,187.3h3.5v6.5h3.6v-6.5h3.5v6.5h8.3v3.1h-23.7
	v-3.1h4.8L231.6,187.3 M91,188.9c3.1-0.7,6.4,0.7,7.9,3.6c0.9,1.9,0.7,4.2-0.6,5.9c-1.9,2.4-5.1,3.3-8,2.4c-1.6-0.5-3-1.6-3.9-3.1
	c-0.9-1.6-1-3.6-0.1-5.2C87.2,190.6,89,189.3,91,188.9 M91.6,191.8c-1.3,0.3-2.3,1.4-2.6,2.8c-0.1,1.5,0.8,2.9,2.3,3.4
	c1.7,0.6,3.6-0.1,4.5-1.6c0.6-1.2,0.4-2.6-0.5-3.5C94.4,191.8,93,191.4,91.6,191.8 M107.8,191h3.5v5h17.6v3.1h-21.1V191 M137.9,191
	h3.5v5h17.8v3.1h-21.3V191 M198.7,191.4h21.6v7.7h-3.5v-4.7h-18.1L198.7,191.4 M220.8,205h0.9c-0.9,1.5-1.4,3.2-1.2,4.9
	c0.2,1.2,0.6,2.3,1.2,3.3h-0.9c-0.5-0.7-0.9-1.5-1.2-2.3c-0.3-1-0.4-2-0.2-3C219.7,206.9,220.2,205.9,220.8,205 M247.7,205h0.9
	c0.6,0.8,1,1.8,1.3,2.7c0.3,1.3,0.2,2.8-0.4,4c-0.3,0.5-0.6,1-0.9,1.5h-0.9C249.4,210.8,249.4,207.5,247.7,205 M223.5,206
	c1.1-0.6,2.5-0.5,3.4,0.3l-0.6,0.9c-0.4-0.7-1.1-1-1.9-0.8c-0.5,0.2-0.8,0.8-0.6,1.3c0.1,0.1,0.1,0.2,0.2,0.3
	c0.7,0.6,1.7,0.7,2.4,1.3c0.8,0.7,0.9,2,0.2,2.8c-0.1,0.1-0.1,0.1-0.2,0.2c-1.4,1-3.3,0.7-4.4-0.5l0.4-1.1c0.4,1,1.4,1.6,2.5,1.5
	c0.7-0.1,1.1-0.7,1.1-1.3c0-0.2-0.1-0.5-0.3-0.7c-0.8-0.7-1.9-0.7-2.7-1.4c-0.7-0.8-0.7-1.9,0-2.7C223.4,206.1,223.5,206,223.5,206
	 M78,206.1c1.1-0.6,2.4-0.4,3.3,0.3l-0.5,1c-0.3-0.4-0.7-0.8-1.2-0.9c-0.6-0.2-1.5,0.3-1.4,1c0,0.6,0.6,0.9,1.1,1.1
	c0.8,0.2,1.5,0.7,2.1,1.3c0.6,0.9,0.3,2-0.5,2.7c-1.4,0.9-3.2,0.7-4.4-0.6c0.2-0.4,0.3-0.7,0.5-1.1c0.4,0.9,1.4,1.5,2.4,1.5
	c0.7-0.1,1.2-0.6,1.1-1.3c0-0.2-0.1-0.4-0.2-0.5c-0.7-0.8-1.9-0.8-2.7-1.5c-0.8-0.7-0.8-1.9-0.2-2.6C77.7,206.3,77.8,206.1,78,206.1
	 M98.8,206.5c1.6-1,3.6-1,5.3,0c-0.2,0.3-0.3,0.6-0.5,0.9c-1.1-1.2-2.9-1.3-4.1-0.3c-0.9,1.2-1,2.8-0.3,4.1c0.9,1.1,2.4,1.4,3.7,0.8
	c0-0.8,0-1.6,0-2.3h1.1v2.8c-1.5,0.6-3.1,0.6-4.7,0.1C97,211.7,96.8,207.9,98.8,206.5 M201.5,206c1.1-0.5,2.4-0.4,3.3,0.4l-0.5,1
	c-0.4-0.7-1.1-1-1.9-0.8c-0.5,0.2-0.8,0.8-0.5,1.3c0,0.1,0.1,0.2,0.2,0.3c0.8,0.6,1.9,0.7,2.6,1.4c0.8,0.8,0.8,2,0,2.8
	c-0.1,0.1-0.1,0.1-0.2,0.2c-1.4,0.9-3.3,0.7-4.4-0.5c0.1-0.4,0.3-0.7,0.5-1.1c0.5,1,1.5,1.6,2.6,1.4c0.6-0.2,1-0.8,0.9-1.5
	c0-0.2-0.1-0.3-0.2-0.5c-0.7-0.6-1.8-0.7-2.6-1.4c-0.8-0.7-0.8-1.9-0.1-2.7C201.2,206.3,201.3,206.2,201.5,206 M228.3,205.8h1.2v3
	l3-3h1.2c-1.1,1.1-2.2,2.2-3.2,3.3c1.1,1.2,2.2,2.5,3.3,3.8h-1.5l-2.8-3.3c0,1.1,0,2.2,0,3.3h-1.2L228.3,205.8 M234.6,205.8h1.2v3
	c1-1,2-2,3-3h1.2c-1.1,1.1-2.2,2.2-3.2,3.2c1.1,1.2,2.2,2.5,3.3,3.8h-1.5l-2.8-3.3v3.3h-1.2L234.6,205.8 M241,205.9h1.1
	c0,1.4,0,2.9,0,4.3c-0.1,0.7,0.3,1.4,0.8,1.9c0.7,0.4,1.5,0.4,2.3,0c0.6-0.5,1-1.2,0.9-2c0-1.4,0-2.8,0-4.1h0.8v4.3
	c0,0.8-0.3,1.6-0.8,2.1c-0.6,0.5-1.4,0.7-2.1,0.7c-0.8,0-1.6-0.2-2.3-0.7c-0.5-0.6-0.8-1.3-0.7-2.1V205.9 M82.6,206.1h1.2
	c0,1.4,0,2.9,0,4.3c-0.1,0.8,0.3,1.5,1,1.9c0.8,0.3,1.7,0.2,2.4-0.4c0.4-0.5,0.6-1.2,0.6-1.9c0-1.3,0-2.6,0-3.9h0.8c0,1.5,0,3,0,4.5
	c0,1.1-0.6,2-1.6,2.4c-1.2,0.4-2.6,0.2-3.6-0.6c-0.5-0.6-0.8-1.4-0.7-2.2C82.6,208.8,82.6,207.4,82.6,206.1 M90.1,206.1h0.6
	c1.6,1.6,3.2,3.2,4.7,4.9v-5h0.8v7h-0.5c-1.6-1.7-3.2-3.4-4.8-5.1c0,1.7,0,3.4,0,5.1h-0.8L90.1,206.1 M106.6,206h1.2
	c0,1,0,1.9,0,2.9l2.9-2.9h2l1.8,3.1c0.6-1.1,1.2-2.1,1.8-3.1h1.2c-0.8,1.3-1.7,2.6-2.4,4c-0.1,1,0,2,0,3h-1.2c0-1,0-1.9,0-2.9
	c-0.7-1.2-1.5-2.4-2.2-3.6l-2.8,2.8c1.1,1.2,2.2,2.5,3.3,3.8h-1.5l-2.8-3.3c0,1.1,0,2.2,0,3.3h-1.2L106.6,206 M117.6,206h1.1
	c0,1.4,0,2.7,0,4.1c-0.1,0.7,0.2,1.5,0.7,2c0.6,0.3,1.4,0.4,2.1,0.1c0.7-0.3,1.2-1.1,1.1-1.9c0-1.4,0-2.9,0-4.3h0.8c0,1.5,0,3,0,4.5
	c0,1.1-0.7,2-1.7,2.4c-1.1,0.4-2.4,0.2-3.4-0.5c-0.6-0.5-0.9-1.3-0.8-2.1C117.6,208.9,117.6,207.5,117.6,206 M125.2,206h0.6
	c1.6,1.6,3.2,3.2,4.7,4.9V206h0.8c0,2.3,0,4.7,0,7c-0.3,0-0.7-0.2-0.9-0.4c-1.5-1.6-3-3.2-4.5-4.8v5.2h-0.8
	C125.2,210.7,125.2,208.4,125.2,206 M134.2,206h1.1v3l3-3c0.7,0,1.4,0,2.1,0c0.5,1.8,1.1,3.6,1.6,5.4c0.6-1.8,1.2-3.6,1.8-5.4h0.7
	c0.6,1.8,1.2,3.6,1.8,5.4c0.6-1.8,1.2-3.6,1.8-5.4h1l-2.3,7h-1c-0.6-1.8-1.1-3.5-1.7-5.2c-0.6,1.8-1.2,3.5-1.8,5.2h-0.9
	c-0.7-2.2-1.4-4.5-2.1-6.7c-1,1-2,2-2.9,2.9c1.1,1.2,2.2,2.5,3.3,3.7h-1.5c-0.9-1.1-1.9-2.2-2.8-3.3v3.4h-1.1L134.2,206 M148.2,213
	c1-2.4,2-4.7,3-7.1h0.6c1,2.4,2.1,4.7,3.1,7.1h-1.4c-0.4-0.9-0.7-1.8-1.1-2.6h-2.1c-0.4,0.9-0.7,1.8-1.1,2.6L148.2,213 M151.4,207.6
	c-0.3,0.7-0.6,1.4-0.8,2.1h1.6C152,209,151.7,208.3,151.4,207.6 M155.4,206.1h0.6c1.6,1.6,3.2,3.2,4.7,4.9c0-1.6,0-3.2,0-4.9h0.8
	c0,2.3,0,4.7,0,7c-0.3,0-0.6-0.2-0.8-0.4c-1.5-1.6-3-3.2-4.5-4.8c0,1.7,0,3.4,0,5.1h-0.8L155.4,206.1 M165.4,206h1.1
	c0,1.4,0,2.8,0,4.1c-0.1,0.8,0.2,1.5,0.8,2c0.7,0.3,1.4,0.3,2.1,0.1c0.7-0.4,1.1-1.2,1.1-2c0-1.4,0-2.8,0-4.1h0.8c0,1.4,0,2.9,0,4.3
	c0,0.9-0.4,1.8-1.1,2.3c-0.8,0.4-1.7,0.6-2.5,0.4c-0.8,0-1.6-0.5-2-1.1c-0.3-0.6-0.4-1.3-0.4-2L165.4,206 M172.9,206h0.6
	c1.6,1.6,3.2,3.2,4.7,4.9c0-1.6,0-3.3,0-4.9h0.8v7h-0.5c-1.6-1.7-3.2-3.4-4.8-5.1c0,1.7,0,3.4,0,5.1H173v-7 M180.9,206h1.2v7h-1.2
	V206 M182.6,206h1.3c0.7,1.8,1.4,3.6,2.2,5.4c0.7-1.8,1.4-3.6,2.2-5.4h1.1c-1,2.3-1.9,4.6-2.9,7h-0.7
	C184.6,210.7,183.6,208.4,182.6,206 M189.8,206h3.8v0.6h-2.6v2.2h2.4v0.8h-2.4v2.5h2.7c0,0.3,0,0.6,0,0.8h-3.9V206 M195,206
	c1.1-0.1,2.3,0,3.4,0.1c0.9,0.3,1.3,1.2,1,2.1c0,0.1-0.1,0.2-0.2,0.3c-0.4,0.6-1.1,1-1.9,1.1c1,1.1,2,2.2,3,3.3H199
	c-1-1.1-2-2.2-2.9-3.3v3.4h-1.1L195,206 M196.1,206.6v2.3c0.6,0.1,1.2,0,1.7-0.2c0.5-0.4,0.7-1.1,0.3-1.6c0-0.1-0.1-0.1-0.2-0.2
	C197.4,206.5,196.7,206.7,196.1,206.6 M206.4,206h1.2v7h-1.2V206 M208.2,206c2,0,4-0.1,6,0c0.6,1,1.2,2.1,1.8,3.1
	c0.6-1,1.2-2.1,1.8-3.1h1.1l-2.3,3.7c-0.2,0.3-0.2,0.7-0.2,1c0,0.8,0,1.5,0,2.2h-1.1c0-1,0-1.9,0-2.9c-0.6-1.2-1.4-2.3-2.1-3.5h-1.7
	v6.4h-1.1v-6.4h-2.2L208.2,206L208.2,206z"/>
<g id="g5805">
	<g id="g5807">
		<g id="g5813">
			<g id="g5815">
				
					<linearGradient id="path5827_00000152960221822166561170000009335551700696737437_" gradientUnits="userSpaceOnUse" x1="-138.827" y1="152.1324" x2="-138.187" y2="152.1324" gradientTransform="matrix(-68.72 -38.88 38.88 -68.72 -15279.29 5158.0005)">
					<stop  offset="0" style="stop-color:#FFFFFF"/>
					<stop  offset="0.2" style="stop-color:#E8EC8F"/>
					<stop  offset="0.76" style="stop-color:#ABCD03"/>
					<stop  offset="1" style="stop-color:#8FC41E"/>
				</linearGradient>
				<path id="path5827" style="fill:url(#path5827_00000152960221822166561170000009335551700696737437_);" d="M128.2,59.7
					c-19.5,19.5-21,50.8-3.2,72l0,0c5.2-7,11.4-13.1,18.4-18.2l0,0c6-4.2,14.3-8.4,20.9-9l0,0c6.3-0.6,15.7,0,21.4,2.7l0,0
					c-4-4-7.8-8.3-11.4-12.7l0,0c-3.1-4.1-4.8-9.1-4.8-14.3l0,0c0-13.1,10.6-23.7,23.7-23.8c0,0,0,0,0,0l0,0c3.1,0,6.1,0.6,8.9,1.8
					l0,0c-9.8-9.1-22.8-14.2-36.2-14.2l0,0C151.8,44,138.2,49.6,128.2,59.7"/>
			</g>
		</g>
	</g>
</g>
<g id="g5829">
	<g id="g5831">
		<g id="g5837">
			<g id="g5839">
				
					<linearGradient id="path5851_00000058578486204908965120000003666826645594681242_" gradientUnits="userSpaceOnUse" x1="-138.9599" y1="152.285" x2="-138.3199" y2="152.285" gradientTransform="matrix(-64.08 -42.86 42.86 -64.08 -15259.7305 3887.0405)">
					<stop  offset="0" style="stop-color:#E5EB91"/>
					<stop  offset="0.2" style="stop-color:#C8DB58"/>
					<stop  offset="0.4" style="stop-color:#A2C80F"/>
					<stop  offset="1" style="stop-color:#66B22F"/>
				</linearGradient>
				<path id="path5851" style="fill:url(#path5851_00000058578486204908965120000003666826645594681242_);" d="M129.8,58.1
					l37.8,39.4l0.2,0.1l-25-48.2C138.1,51.6,133.7,54.5,129.8,58.1"/>
			</g>
		</g>
	</g>
</g>
<g id="g5853">
	<g id="g5855">
		<g id="g5861">
			<g id="g5863">
				
					<linearGradient id="path5875_00000090258856730674072140000018353670651262917523_" gradientUnits="userSpaceOnUse" x1="-138.961" y1="152.1876" x2="-138.321" y2="152.1876" gradientTransform="matrix(-64.06 -42.84 42.84 -64.06 -15243.3496 3872.7795)">
					<stop  offset="0" style="stop-color:#E5EB91"/>
					<stop  offset="0.2" style="stop-color:#C8DB58"/>
					<stop  offset="0.4" style="stop-color:#A2C80F"/>
					<stop  offset="1" style="stop-color:#66B22F"/>
				</linearGradient>
				<path id="path5875" style="fill:url(#path5875_00000090258856730674072140000018353670651262917523_);" d="M158.3,44.6l9.6,53
					l0,0l0,0l3.3-53.3c-1.8-0.2-3.5-0.2-5.3-0.2l0,0C163.3,44.1,160.8,44.2,158.3,44.6"/>
			</g>
		</g>
	</g>
</g>
<g id="g5877">
	<g id="g5879">
		<g id="g5885">
			<g id="g5887">
				
					<linearGradient id="path5899_00000079451631340765921630000002241084656847965369_" gradientUnits="userSpaceOnUse" x1="-138.9595" y1="152.4764" x2="-138.3195" y2="152.4764" gradientTransform="matrix(-64.09 -42.86 42.86 -64.09 -15283 3923.3291)">
					<stop  offset="0" style="stop-color:#E5EB91"/>
					<stop  offset="0.2" style="stop-color:#C8DB58"/>
					<stop  offset="0.4" style="stop-color:#A2C80F"/>
					<stop  offset="1" style="stop-color:#66B22F"/>
				</linearGradient>
				<path id="path5899" style="fill:url(#path5899_00000079451631340765921630000002241084656847965369_);" d="M112.8,92.5l55,5.1
					l-0.1-0.1l-51.6-19.2C114.3,82.9,113.2,87.6,112.8,92.5"/>
			</g>
		</g>
	</g>
</g>
<g id="g5901">
	<g id="g5903">
		<g id="g5909">
			<g id="g5911">
				
					<linearGradient id="path5923_00000072982718412125378580000012546318758632352663_" gradientUnits="userSpaceOnUse" x1="-138.9601" y1="152.5325" x2="-138.3201" y2="152.5325" gradientTransform="matrix(-64.08 -42.85 42.85 -64.08 -15287.1396 3934.6008)">
					<stop  offset="0" style="stop-color:#E5EB91"/>
					<stop  offset="0.2" style="stop-color:#C8DB58"/>
					<stop  offset="0.4" style="stop-color:#A2C80F"/>
					<stop  offset="1" style="stop-color:#66B22F"/>
				</linearGradient>
				<path id="path5923" style="fill:url(#path5923_00000072982718412125378580000012546318758632352663_);" d="M113.1,105.1
					c0.5,3.8,1.5,7.4,2.8,11l0,0l51.7-18.3L113.1,105.1z"/>
			</g>
		</g>
	</g>
</g>
<g id="g5927">
	<g id="g5933">
		<path id="path5935" class="st0" d="M149.3,128.6c0,0,1.5-0.7,1.9-0.9v10.2h1.8v-12l-0.3-0.2l-0.1,0.1c-1.3,0.7-2.7,1.3-3.9,1.8
			L149.3,128.6z"/>
	</g>
	<g id="g5937">
		<path id="path5939" class="st0" d="M159.1,131.9c1.5,0,2.2,0.8,2.2,2.3c0.1,1.3-0.9,2.5-2.2,2.7c-0.1,0-0.2,0-0.3,0
			c-0.8,0-1.6-0.4-2.1-1.1l-0.2-0.3l-0.4,1.6l0.1,0.1c0.8,0.4,1.7,0.6,2.7,0.6c2.6,0,4.5-1.6,4.5-3.8c0-1.4-1.1-2.6-2.5-2.8
			c1.2-0.4,2-1.5,2-2.8c0-1.7-1.3-2.7-3.4-2.7c-1,0-2,0.4-2.7,1.2l0.8,1.4l0.1-0.4c0.3-0.7,1-1.2,1.7-1.2c0.8,0,1.6,0.5,1.6,1.9
			c0,1.1-0.3,2.4-1.8,2.4l-1-0.1v1.1C158.5,131.9,158.8,131.9,159.1,131.9"/>
	</g>
	<g id="g5941">
		<path id="path5943" class="st0" d="M169.1,132.1c-1.3,0-1.9-0.8-1.9-2.6s0.8-2.9,2.1-2.9s2.1,1,2.1,2.5
			C171.3,130.6,170.6,132.1,169.1,132.1 M165.8,135.4l0.5,1.9c0.6,0.3,1.2,0.4,1.8,0.4c3.1,0,5.2-2.9,5.2-7c0-4.6-2.8-5.1-4-5.1
			c-2.1-0.2-3.8,1.4-4,3.4c0,0.1,0,0.3,0,0.4c-0.2,1.8,1.2,3.4,3,3.6c0.2,0,0.4,0,0.5,0c1,0,2-0.4,2.6-1.2c-0.1,2.6-1.1,4.9-3.2,4.9
			C167.1,136.8,166.2,136.3,165.8,135.4"/>
	</g>
</g>
<g id="g5947">
	<g id="g5953">
		<path id="path5955" class="st0" d="M178.9,136.9c-1.3,0-2.1-1.1-2.1-2.7c0-1.6,0.8-2.7,2.1-2.7s2.1,1.1,2.1,2.7
			C181,135.8,180.1,136.9,178.9,136.9 M177.2,128.6c0-0.5,0.1-2,1.6-2s1.7,1.4,1.7,2c0,0.6-0.1,2-1.7,2S177.2,129.1,177.2,128.6
			 M180.6,130.9c1-0.4,1.7-1.4,1.7-2.5c0-1.2-0.9-2.7-3.4-2.7c-1.7-0.2-3.2,1.1-3.4,2.8c0,0,0,0.1,0,0.1c0,1.1,0.7,2.1,1.7,2.4
			c-1.4,0.5-2.4,1.8-2.3,3.3c0,2.1,1.6,3.5,4,3.5c2.1,0.1,3.9-1.5,4-3.6c0-0.1,0-0.2,0-0.3C183,132.5,182,131.2,180.6,130.9"/>
	</g>
	<g id="g5957">
		<path id="path5959" class="st6" d="M125.2,144.7c-2.4-2.1-4.6-4.4-6.6-6.9c-10.9-12.2-23.4-44.3-2.6-73.4
			c19.3-27.3,57-33.8,84.3-14.6c3.3,2.3,6.3,4.9,9,7.8c1,0.9,1.1,2.4,0.2,3.4c0,0,0,0-0.1,0.1c-1.2,1-2.4,0.5-4.9-0.2
			c-3.5-1.1-7.2-1.4-10.9-0.9c-8.3,1.1-15.6,8.8-14.6,19.6c0.9,9.9,8.5,17,13.9,21.7c18.8,16.5,12.5,34.3,11,38.2
			c-5.2,13.2-18.5,22.6-35.8,22.6c-9.9-0.2-19.6-3.1-27.9-8.5c-0.4-0.2-0.8-0.7-0.3-1.6c1.5-3.4,3.4-6.6,5.6-9.6
			c5.2,6,13.9,11.6,23.6,12c13.3,0.5,21.8-6.7,25-15.8c3.5-10.2-0.2-20.7-10.1-30.1c-8.5-8.1-16.2-15.6-16.6-28.5
			c-0.6-16.5,13.8-26.3,27.1-25.6c0.4,0-18.4-13.6-42.6-5.5c-8.7,2.8-16.5,8-22.4,14.9c-0.3,0.4-0.3,1,0,1.3c0.4,0.5,8.6,12,8.6,12
			l-14.8-3.4c-0.4-0.1-0.7,0.1-0.9,0.4c-4.7,8.1-11.7,31.6,3.8,53c0,0,13.2-20.9,39.4-22.7c1.7-0.1,1.5,0.5,0.4,0.9
			c-23.4,8.6-32.7,25.8-38.6,39c-0.3,0.7-1.1,1-1.7,0.7C125.4,144.9,125.3,144.8,125.2,144.7"/>
	</g>
</g>
<rect x="63" y="26" class="st7" width="200" height="200"/>
</svg>
